# xmcd
#
# Track frame offsets:
#	150
#	20367
#	33436
#	52946
#	66992
#	97324
#	114565
#	139657
#	155768
#	172132
#	195644
#	215597
#
# Disc length: 3174 seconds
#
# Revision: 1
# Processed by: cddbd v1.5.1PL0 Copyright (c) Steve Scherf et al.
# Submitted via: audiograbber 1.83.01
#
DISCID=b20c640c
DTITLE=Talon - The Rest of the Eagles
DYEAR=2002
DGENRE=
TTITLE0=One of These Nights
TTITLE1=Tequila Sunrise
TTITLE2=Best of My Love
TTITLE3=Midnight Flyer
TTITLE4=The Last Resort (live)
TTITLE5=I Can't Tell You Why
TTITLE6=Take It Easy
TTITLE7=My Man
TTITLE8=Get Over It
TTITLE9=Love Will Keep Us Alive
TTITLE10=Peacefull Easy Feeling
TTITLE11=Wasted Time
EXTD=Tribute Band for The Eagles
EXTT0=
EXTT1=
EXTT2=
EXTT3=
EXTT4=
EXTT5=
EXTT6=
EXTT7=
EXTT8=
EXTT9=
EXTT10=
EXTT11=
PLAYORDER=
